:SAMPLES-PER-SECOND 30
:FRAME-RANGE 1-1390
:FULLY-SPECIFIED
:DEGREES
305
root  -42.4405 34.163 -4.6987 166.401 46.2893 -179.391
RightUpLeg  -11.6354 2.38418 10.8283
RightLeg  58.9188 -8.40254 -15.1472
RightFoot  -31.3022 -0.187329 0.145235
RightToes  -2.9104e-010 0 -3.6325e-017
Spine  21.4798 -1.62314 -3.07286
Spine1  -0.497194 -6.70103 10.4144
HEad  -2.12122 30.2798 -9.32306
LeftShoulder1  3.38104 -5.60493 -31.1143
LeftArm  95.7808 -33.6157 -85.5539
LeftForeArm  -19.1719 -20.267 -9.48184
LeftHand  -0.0569737 3.2872 2.25506
RightShoulder  12.3243 20.4742 44.8116
RightArm  32.1246 9.6271 22.6411
RightForeArm  29.4515 29.4244 4.76736
RightHand  0.670536 4.57019 7.50573
LeftUpLeg  -92.9364 18.9012 -68.5414
LeftLeg  120.637 -5.38542 7.82835
LeftFoot  8.25212 1.43201 -8.57419
LeftToes  5.45371e-012 -1.3743e-010 1.09575e-010
306
root  -42.3829 34.2545 -4.84863 166.136 47.295 -179.67
RightUpLeg  -11.1706 1.93701 10.4574
RightLeg  58.4989 -8.08449 -14.3826
RightFoot  -31.1021 -0.317456 -0.608497
RightToes  -2.9104e-010 0 -3.6325e-017
Spine  21.669 -1.5972 -3.91942
Spine1  -1.16347 -6.84915 11.1863
HEad  -3.39817 31.3516 -9.59903
LeftShoulder1  3.38543 -5.65704 -30.9498
LeftArm  94.4764 -33.2724 -85.6419
LeftForeArm  -17.6977 -19.9611 -9.75568
LeftHand  -0.0653723 3.08645 2.54514
RightShoulder  12.3428 20.3137 45.2019
RightArm  33.0607 9.65522 22.5337
RightForeArm  28.7326 28.9301 4.69399
RightHand  0.703931 4.70613 7.77743
LeftUpLeg  -92.2293 17.1087 -67.1751
LeftLeg  120.512 -5.40056 7.88971
LeftFoot  8.37945 1.68834 -9.98945
LeftToes  5.45371e-012 -1.3743e-010 1.09575e-010
307
root  -42.287 34.3175 -4.93962 165.162 47.901 179.715
RightUpLeg  -10.4427 0.187719 9.81242
RightLeg  58.4269 -8.0271 -14.2484
RightFoot  -30.964 -0.325836 -0.666879
RightToes  -2.9104e-010 0 -3.6325e-017
Spine  22.3292 -1.25757 -5.00422
Spine1  -1.51581 -6.83368 11.766
HEad  -5.48903 31.7241 -9.88618
LeftShoulder1  3.36914 -5.68099 -30.6733
LeftArm  96.2336 -32.8022 -86.3814
LeftForeArm  -18.1068 -20.2844 -9.38658
LeftHand  -0.0752018 3.04242 3.01187
RightShoulder  12.1913 19.8818 45.4915
RightArm  33.1736 9.62541 22.1788
RightForeArm  28.1623 28.9115 4.72068
RightHand  0.71961 4.73332 7.93342
LeftUpLeg  -90.9211 15.3335 -65.64
LeftLeg  120.552 -5.3592 7.81404
LeftFoot  7.83489 1.71432 -10.4105
LeftToes  5.45371e-012 -1.3743e-010 1.09575e-010
308
root  -42.167 34.3897 -4.99018 163.964 48.9068 178.998
RightUpLeg  -9.50138 -2.47636 9.19086
RightLeg  58.2431 -8.5619 -15.0122
RightFoot  -30.8779 -0.336282 -0.734038
RightToes  -2.9104e-010 0 -3.6325e-017
Spine  22.8192 -0.754538 -5.19136
Spine1  -1.54157 -6.36195 11.1604
HEad  -8.05334 31.0432 -10.4008
LeftShoulder1  3.33242 -5.62012 -30.5134
LeftArm  99.5739 -32.0899 -86.8693
LeftForeArm  -20.0088 -20.9885 -8.64767
LeftHand  -0.0830306 2.88266 3.22727
RightShoulder  12.0525 19.5136 45.7081
RightArm  32.2733 9.08843 21.6543
RightForeArm  28.3644 29.5354 4.85197
RightHand  0.740197 4.76042 8.14437
LeftUpLeg  -90.1778 13.7157 -64.1785
LeftLeg  120.868 -5.82657 8.42576
LeftFoot  7.36045 1.73959 -10.8129
LeftToes  5.45371e-012 -1.3743e-010 1.09575e-010
309
root  -41.9603 34.4918 -5.03835 162.774 49.6232 178.672
RightUpLeg  -7.63452 -3.90743 8.74387
RightLeg  57.1915 -8.41216 -14.1904
RightFoot  -31.0123 -0.534141 -1.86473
RightToes  -2.9104e-010 0 -3.6325e-017
Spine  22.9866 -0.345032 -5.43758
Spine1  -1.58602 -6.07564 11.0198
HEad  -9.5484 30.3334 -10.9392
LeftShoulder1  3.28646 -5.54796 -30.2936
LeftArm  101.758 -30.9772 -86.9826
LeftForeArm  -21.1594 -21.4222 -8.19693
LeftHand  -0.0949612 2.7471 3.62836
RightShoulder  12.0288 19.254 46.1593
RightArm  32.2483 8.48895 21.1484
RightForeArm  28.0825 30.0017 4.97501
RightHand  0.727636 4.65823 8.08977
LeftUpLeg  -89.4354 12.0735 -62.0343
LeftLeg  121.996 -4.23262 5.74702
LeftFoot  7.21728 1.65073 -10.352
LeftToes  5.45371e-012 -1.3743e-010 1.09575e-010
310
root  -41.7242 34.7482 -5.07712 160.665 49.9338 178.092
RightUpLeg  -4.27687 -4.70452 7.88434
RightLeg  54.9285 -8.05128 -12.523
RightFoot  -31.1346 -0.652875 -2.52839
RightToes  -2.9104e-010 0 -3.6325e-017
Spine  23.2836 -0.0956161 -6.08193
Spine1  -1.45827 -6.01724 11.0026
HEad  -9.60195 30.1843 -11.0351
LeftShoulder1  3.23672 -5.45396 -30.1164
LeftArm  102.482 -30.171 -87.0856
LeftForeArm  -20.2699 -21.4729 -8.07304
LeftHand  -0.11271 2.54372 4.14892
RightShoulder  12.0443 18.8741 47.0354
RightArm  32.4338 8.14294 21.0336
RightForeArm  27.6562 29.905 4.97604
RightHand  0.702206 4.62642 7.82471
LeftUpLeg  -88.5005 11.2272 -60.4758
LeftLeg  123.117 -3.47035 4.43029
LeftFoot  7.23645 1.42894 -8.99367
LeftToes  5.45371e-012 -1.3743e-010 1.09575e-010
311
root  -41.5621 35.3633 -5.11277 157.167 49.9948 176.422
RightUpLeg  0.325179 -6.19115 5.61449
RightLeg  50.9205 -7.5391 -10.1979
RightFoot  -29.604 -0.801577 -3.73467
RightToes  -2.9104e-010 0 -3.6325e-017
Spine  23.7218 0.354458 -6.83814
Spine1  -1.49628 -5.69932 10.8073
HEad  -7.69324 29.6604 -10.7079
LeftShoulder1  3.1916 -5.3842 -29.8884
LeftArm  103.041 -29.8695 -87.8042
LeftForeArm  -19.0743 -21.5126 -7.94175
LeftHand  -0.125854 2.41198 4.51252
RightShoulder  12.0096 18.3815 47.9831
RightArm  31.5069 7.58115 20.8355
RightForeArm  26.9041 29.9465 5.02714
RightHand  0.67295 4.60863 7.5022
LeftUpLeg  -88.1328 11.762 -60.1259
LeftLeg  123.515 -4.21335 5.39523
LeftFoot  7.61349 1.03491 -6.47367
LeftToes  5.45371e-012 -1.3743e-010 1.09575e-010
